<svg xmlns="http://www.w3.org/2000/svg" version="1.1" xmlns:xlink="http://www.w3.org/1999/xlink" xmlns:svgjs="http://svgjs.dev/svgjs" width="1000" height="623" viewBox="0 0 1000 623"><g transform="matrix(1,0,0,1,-0.6060606060606233,4.2943178643101305)"><svg viewBox="0 0 396 247" data-background-color="#ffffff" preserveAspectRatio="xMidYMid meet" height="623" width="1000" xmlns="http://www.w3.org/2000/svg" xmlns:xlink="http://www.w3.org/1999/xlink"><g id="tight-bounds" transform="matrix(1,0,0,1,0.2400000000000091,-0.09999999999999432)"><svg viewBox="0 0 395.52 247.2" height="247.2" width="395.52"><g><svg></svg></g><g><svg viewBox="0 0 395.52 247.2" height="247.2" width="395.52"><g transform="matrix(1,0,0,1,75.54432,57.92906494226328)"><svg viewBox="0 0 244.43135999999998 131.34187011547343" height="131.34187011547343" width="244.43135999999998"><g><svg viewBox="0 0 244.43135999999998 131.34187011547343" height="131.34187011547343" width="244.43135999999998"><g><svg viewBox="0 0 244.43135999999998 131.34187011547343" height="131.34187011547343" width="244.43135999999998"><g><svg viewBox="0 0 244.43135999999998 131.34187011547343" height="131.34187011547343" width="244.43135999999998"><g><svg viewBox="0 0 244.43135999999998 131.34187011547343" height="131.34187011547343" width="244.43135999999998"><g><svg viewBox="0 0 244.43135999999998 131.34187011547343" height="131.34187011547343" width="244.43135999999998"><g transform="matrix(1,0,0,1,0,0)"><svg width="244.43135999999998" viewBox="0.6500000357627869 -34.900001525878906 64.94999694824219 34.900001525878906" height="131.34187011547343" data-palette-color="#ee3e38"><path d="M16.85 0L12.65 0 12.65-13.8 0.65-34.9 5.45-34.9 14.75-18.1 14.9-18.1 24.2-34.9 29-34.9 16.85-13.95 16.85 0ZM61.5 0L61.5-29.4 61.25-29.4 58.3-23.55 49.95-8.35 41.6-23.55 38.65-29.4 38.4-29.4 38.4 0 34.3 0 34.3-34.9 39.9-34.9 49.9-16.1 50.15-16.1 60.2-34.9 65.6-34.9 65.6 0 61.5 0Z" opacity="1" transform="matrix(1,0,0,1,0,0)" fill="#ee3e38" class="undefined-text-0" data-fill-palette-color="primary" id="text-0"></path></svg></g></svg></g></svg></g></svg></g><g></g></svg></g></svg></g></svg></g><g><path d="M153.646 26.922A122.216 122.216 0 0 1 241.874 26.922L230.03 26.922A110.371 110.371 0 0 0 165.49 26.922L153.646 26.922M153.646 220.278A122.216 122.216 0 0 0 241.874 220.278L230.03 220.278A110.371 110.371 0 0 1 165.49 220.278L153.646 220.278" fill="#ee3e38" stroke="transparent" data-fill-palette-color="tertiary"></path></g></svg></g><defs></defs></svg><rect width="395.52" height="247.2" fill="none" stroke="none" visibility="hidden"></rect></g></svg></g></svg>